<?xml version="1.0" encoding="UTF-8" standalone="no"?>
<svg
   width="350"
   height="500"
   viewBox="0 0 92.604164 132.29167"
   version="1.1"
   id="svg2081"
   inkscape:version="1.1 (c4e8f9e, 2021-05-24)"
   sodipodi:docname="artichoke.svg"
   xmlns:inkscape="http://www.inkscape.org/namespaces/inkscape"
   xmlns:sodipodi="http://sodipodi.sourceforge.net/DTD/sodipodi-0.dtd"
   xmlns="http://www.w3.org/2000/svg"
   xmlns:svg="http://www.w3.org/2000/svg"
   xmlns:rdf="http://www.w3.org/1999/02/22-rdf-syntax-ns#"
   xmlns:cc="http://creativecommons.org/ns#"
   xmlns:dc="http://purl.org/dc/elements/1.1/">
  <title
     id="title113">Artichoke</title>
  <defs
     id="defs2075" />
  <sodipodi:namedview
     id="base"
     pagecolor="#ffffff"
     bordercolor="#666666"
     borderopacity="1.0"
     inkscape:pageopacity="0.0"
     inkscape:pageshadow="2"
     inkscape:zoom="1.4"
     inkscape:cx="332.5"
     inkscape:cy="286.42857"
     inkscape:document-units="mm"
     inkscape:current-layer="layer1"
     inkscape:document-rotation="0"
     showgrid="false"
     units="px"
     inkscape:window-width="1252"
     inkscape:window-height="1174"
     inkscape:window-x="137"
     inkscape:window-y="25"
     inkscape:window-maximized="0"
     inkscape:pagecheckerboard="0"
     width="400px" />
  <metadata
     id="metadata2078">
    <rdf:RDF>
      <cc:Work
         rdf:about="">
        <dc:format>image/svg+xml</dc:format>
        <dc:type
           rdf:resource="http://purl.org/dc/dcmitype/StillImage" />
        <cc:license
           rdf:resource="http://creativecommons.org/licenses/by/4.0/" />
        <dc:title>Artichoke</dc:title>
        <dc:creator>
          <cc:Agent>
            <dc:title>Thomas Klausner</dc:title>
          </cc:Agent>
        </dc:creator>
      </cc:Work>
      <cc:License
         rdf:about="http://creativecommons.org/licenses/by/4.0/">
        <cc:permits
           rdf:resource="http://creativecommons.org/ns#Reproduction" />
        <cc:permits
           rdf:resource="http://creativecommons.org/ns#Distribution" />
        <cc:requires
           rdf:resource="http://creativecommons.org/ns#Notice" />
        <cc:requires
           rdf:resource="http://creativecommons.org/ns#Attribution" />
        <cc:permits
           rdf:resource="http://creativecommons.org/ns#DerivativeWorks" />
      </cc:License>
    </rdf:RDF>
  </metadata>
  <g
     inkscape:label="Layer 1"
     inkscape:groupmode="layer"
     id="layer1">
    <g
       id="g109"
       transform="translate(-21.544642,-1.5119048)">
      <g
         id="g2106"
         transform="matrix(1.4306711,0,0,1.2609291,-28.979487,-34.511651)"
         style="stroke-width:1.52108;stroke-miterlimit:4;stroke-dasharray:none">
        <path
           style="fill:none;stroke:#000000;stroke-width:1.52108;stroke-linecap:butt;stroke-linejoin:miter;stroke-miterlimit:4;stroke-dasharray:none;stroke-opacity:1"
           d="m 52.414596,106.26407 -0.256651,20.5081 28.204552,0.0688 0.469269,-21.07584 z"
           id="path2083"
           sodipodi:nodetypes="ccccc" />
        <path
           style="fill:none;stroke:#000000;stroke-width:1.52108;stroke-linecap:butt;stroke-linejoin:miter;stroke-miterlimit:4;stroke-dasharray:none;stroke-opacity:1"
           d="m 64.255951,105.45536 c -5.236515,-3.71414 -10.709985,-3.46699 -14.436361,-9.387573 -2.661758,-4.49172 1.232729,-14.31416 1.232729,-14.31416 0,0 3.18735,-5.189563 4.021756,-7.096778 2.034857,-4.651102 3.570462,-6.564456 6.873504,-10.215185 1.423004,-1.572794 0.937732,-3.659745 2.497361,-5.099404 0.485251,-0.447924 1.391092,-1.118971 1.889882,-1.700892 0.320198,-0.373566 0.452924,-1.133928 0.944938,-1.133928 0.125995,0 -0.03315,0.256424 0,0.377976 0.15725,0.576575 0.345011,1.146006 0.566965,1.700892 0.282697,0.706742 0.578113,1.411909 0.944941,2.078869 1.113372,2.024314 4.732553,6.641711 5.931896,7.725581 1.752018,3.658223 3.812316,7.755089 4.593155,11.310004 1.390052,4.401828 3.208775,3.611035 3.186715,8.905579 -0.01458,3.500266 -1.234277,8.479856 -4.163564,9.944499 -4.928693,5.54642 -10.095708,5.22196 -15.217845,7.47148"
           id="path2085"
           sodipodi:nodetypes="cccssssssssccscc" />
        <path
           style="fill:none;stroke:#000000;stroke-width:1.52108;stroke-linecap:butt;stroke-linejoin:miter;stroke-miterlimit:4;stroke-dasharray:none;stroke-opacity:1"
           d="m 57.452381,105.83333 c -14.186646,-3.89936 -12.861383,0.99725 -19.750227,-13.020931 0,-5.778963 -0.810091,-17.910213 -0.09352,-23.642757 0.541901,-4.335206 0.873578,-9.745261 2.645834,-13.796132 0.28159,-0.643639 1.001913,-1.672405 1.322916,-1.511903 0.880142,0.440071 1.499457,1.275162 2.267858,1.889882 0.560869,0.448696 1.193001,0.815025 1.700892,1.322916 0.445447,0.445447 0.740394,1.019987 1.133928,1.511903 1.784114,2.230142 3.228964,4.561986 4.724701,6.992559 0.672269,1.092439 2.965245,7.661871 3.55026,8.246886"
           id="path2087"
           sodipodi:nodetypes="ccsssssssc" />
        <path
           style="fill:none;stroke:#000000;stroke-width:1.52108;stroke-linecap:butt;stroke-linejoin:miter;stroke-miterlimit:4;stroke-dasharray:none;stroke-opacity:1"
           d="m 76.874304,71.688322 c 4.73688,-3.601063 11.005467,-9.656898 15.351886,-13.668979 0.81789,-0.754975 1.562806,-2.071594 2.83482,-1.889879 0.907428,0.129633 1.127683,0.757796 1.511905,1.700893 1.806911,4.435144 1.508821,8.014607 1.322917,12.662201 -0.09557,2.38927 -0.02844,4.804685 -0.377976,7.181549 -0.82142,5.585661 -0.469003,2.473322 -1.511906,6.992559 -1.607423,5.748643 -8.895833,17.373474 -15.064097,19.609104 -1.377315,0.29514 -5.863598,0.8676 -7.139091,1.50535"
           id="path2089"
           sodipodi:nodetypes="csssssccc" />
        <path
           style="fill:none;stroke:#000000;stroke-width:1.52108;stroke-linecap:butt;stroke-linejoin:miter;stroke-miterlimit:4;stroke-dasharray:none;stroke-opacity:1"
           d="m 48.002975,59.909225 c 1.007938,-1.511903 2.112486,-2.963682 3.023809,-4.535715 1.611318,-2.779519 2.932645,-5.72018 4.535715,-8.504462 0.793327,-1.377887 1.79223,-2.627374 2.645834,-3.96875 0.03382,-0.05315 0.063,-0.188989 0,-0.188989 -0.063,0 -0.0052,0.126209 0,0.188989 0.219252,2.63104 0.01691,1.695212 0.94494,4.346726 2.022878,5.779645 -1.336754,-4.005652 1.511904,3.590774 0.988843,2.636909 3.01271,5.889721 3.01271,8.729282"
           id="path2091"
           sodipodi:nodetypes="csssscssc" />
        <path
           style="fill:none;stroke:#000000;stroke-width:1.52108;stroke-linecap:butt;stroke-linejoin:miter;stroke-miterlimit:4;stroke-dasharray:none;stroke-opacity:1"
           d="m 69.169642,61.610118 c 3.181887,-5.358207 6.844384,-10.475974 9.638392,-16.063987 0.538197,-1.076394 0.680471,-1.789239 1.322917,-2.645833 0.08452,-0.112691 0.07178,-0.456113 0.188989,-0.377976 0.23441,0.156274 0.247658,0.506177 0.377976,0.755952 0.625657,1.199179 1.258062,2.394828 1.889881,3.590774 1.13207,2.142847 2.217653,4.31107 3.401785,6.425594 1.278104,2.282327 3.212799,4.291235 3.212799,6.992559"
           id="path2093" />
        <path
           style="fill:none;stroke:#000000;stroke-width:1.52108;stroke-linecap:butt;stroke-linejoin:miter;stroke-miterlimit:4;stroke-dasharray:none;stroke-opacity:1"
           d="m 59.34226,48.947916 c 0.692957,-0.944941 1.385914,-1.889882 2.078871,-2.834822 1.259919,-1.88988 2.439625,-3.835771 3.779761,-5.669643 1.056534,-1.445781 2.265169,-2.774029 3.401785,-4.157736 0.312303,-0.380193 0.658963,-0.73356 0.94494,-1.13393 0.03662,-0.05126 0.063,-0.188987 0,-0.188987 -0.06299,0 -0.01527,0.127873 0,0.188987 0.111231,0.444925 0.239874,0.885586 0.377976,1.322916 0.239956,0.759857 0.472281,1.523217 0.755954,2.267858 0.677858,1.779378 1.542815,3.530851 2.267858,5.291666 0.258334,0.627383 0.426447,1.296776 0.755952,1.889882 0.305935,0.550685 0.800049,0.977699 1.133927,1.511903 0.473662,0.757859 0.546063,2.057969 1.13393,2.645833"
           id="path2095" />
      </g>
      <path
         style="fill:#008000;fill-rule:evenodd;stroke:#000000;stroke-width:3.93881"
         d="m 202.4262,370.87477 c 0.22532,-0.36458 -0.15749,-0.83386 -0.8507,-1.04285 -4.50622,-1.35858 -28.2548,-5.74387 -42.75704,-7.89528 -24.69798,-3.66396 -27.28891,-4.60073 -34.98334,-12.64844 -5.29217,-5.53517 -11.00448,-13.96332 -19.05043,-28.10772 L 98.68994,310.4662 98.225835,292.25191 c -0.255257,-10.01786 -0.745875,-28.45984 -1.090262,-40.98219 -0.760903,-27.66745 -0.105422,-42.70354 2.806354,-64.37495 2.632563,-19.59327 5.059503,-32.05453 7.890883,-40.51608 2.09803,-6.26993 5.86271,-14.41796 6.98093,-15.10906 0.3311,-0.20463 2.34723,1.08761 4.48027,2.87165 2.13304,1.78403 6.01659,4.63801 8.6301,6.34216 5.21948,3.40339 14.86822,14.06895 25.18575,27.8399 10.3184,13.77212 12.92104,18.21065 20.65492,35.22474 4.16345,9.15933 8.18125,17.49257 8.92845,18.51832 l 1.35855,1.865 -2.52887,4.33883 c -1.39088,2.38635 -6.36231,10.08631 -11.04763,17.11102 -6.75714,10.13099 -9.0705,14.26685 -11.18681,20 -5.97639,16.19018 -8.6162,28.99712 -8.6162,41.80111 0,13.93834 2.49908,20.25797 11.90356,30.10153 9.52802,9.97286 19.46143,15.65644 42.82661,24.504 6.72659,2.54711 14.60159,5.75483 17.5,7.12824 l 5.26983,2.49712 -13.07787,0.0622 c -7.87687,0.0374 -12.91494,-0.20143 -12.6682,-0.60067 z"
         id="path2802"
         transform="scale(0.26458333)" />
      <path
         style="fill:#008000;fill-rule:evenodd;stroke:#000000;stroke-width:3.93881"
         d="m 263.49348,151.4672 c -2.19709,-4.30665 -4.82176,-11.57577 -4.49964,-12.4619 0.55662,-1.53118 -2.60381,-3.89625 -5.20654,-3.89625 -2.59626,0 -2.68678,0.0704 -9.32336,7.25488 -1.10328,1.19435 -2.84081,2.76969 -3.8612,3.50076 l -1.85524,1.32921 -1.21432,-4.43528 c -0.66788,-2.4394 -4.70931,-11.66742 -8.98096,-20.50671 -4.27165,-8.83928 -8.25816,-17.27748 -8.85892,-18.75155 l -1.09229,-2.68012 3.77124,-4.462736 c 2.07419,-2.454505 7.46133,-9.444878 11.97143,-15.534164 9.91536,-13.387148 17.19862,-22.082154 24.68638,-29.471408 l 5.61672,-5.542838 2.61515,6.614266 c 4.90524,12.40641 18.37345,39.10616 21.36168,42.348014 1.54718,1.678487 3.60093,5.062228 4.5639,7.519426 0.96297,2.4572 2.19782,5.14979 2.74411,5.98354 0.92837,1.41687 -0.0481,2.97697 -14.94488,23.87851 l -15.93815,22.36261 z"
         id="path2804"
         transform="scale(0.26458333)" />
      <path
         style="fill:#008000;fill-rule:evenodd;stroke:#000000;stroke-width:3.93881"
         d="m 269.60084,368.30278 c 16.55369,-4.89618 28.63347,-10.60703 37.96778,-17.9497 4.20882,-3.31079 7.30923,-5.73298 15.41109,-12.03988 11.96895,-9.31722 19.26605,-31.38835 17.62091,-53.29689 -0.64489,-8.58811 -2.49376,-13.36762 -8.28064,-21.40631 -5.43825,-7.5544 -7.17262,-11.08486 -10.5414,-21.45796 -1.48506,-4.57279 -4.84612,-12.75691 -7.46902,-18.18693 l -4.76891,-9.87278 7.88724,-5.64161 c 15.66182,-11.20265 67.16153,-52.33844 79.42419,-63.44068 4.2409,-3.83958 6.01506,-4.5914 8.14498,-3.4515 2.64268,1.41432 7.65043,14.25381 9.72272,24.92832 1.3943,7.18218 1.49355,21.63788 0.33629,48.97934 -0.79009,18.66682 -2.90709,34.48825 -5.76106,43.05549 -0.74889,2.24805 -2.38097,7.44349 -3.62685,11.54544 -8.36283,27.53382 -39.40683,68.55754 -64.3348,85.01648 -9.34923,6.17292 -13.2859,7.50077 -29.65886,10.004 -7.89521,1.20709 -16.57378,2.80498 -19.28572,3.55088 -3.62152,0.99608 -8.43959,1.46815 -18.14508,1.77785 l -13.21429,0.42166 z"
         id="path2806"
         transform="scale(0.26458333)" />
      <path
         style="fill:#008000;fill-rule:evenodd;stroke:#000000;stroke-width:3.93881"
         d="m 177.42073,433.85905 c 0.2359,-19.9375 0.61246,-40.15689 0.8368,-44.93199 l 0.40789,-8.682 8.68199,-0.41488 c 13.78979,-0.65895 134.71734,-2.13817 135.20169,-1.65382 0.40441,0.40442 -0.56442,47.38139 -1.61977,78.53984 l -0.45363,13.39285 h -71.74194 -71.74194 z"
         id="path2808"
         transform="scale(0.26458333)" />
      <path
         style="fill:#00ff00;fill-rule:evenodd;stroke:#000000;stroke-width:3.93881"
         d="m 231.02941,363.7606 c -4.32143,-2.22467 -13.32143,-6.09204 -20,-8.59416 -23.3981,-8.76608 -34.144,-14.90271 -42.75093,-24.41369 -7.82335,-8.64507 -10.0103,-16.58899 -8.44423,-30.67299 1.02389,-9.20811 4.03196,-21.40386 7.68465,-31.15622 1.97197,-5.26501 4.68023,-10.0767 11.36116,-20.18511 4.82458,-7.29973 10.62426,-16.64723 12.88815,-20.77223 11.7712,-21.44805 15.47606,-26.58636 29.61356,-41.07143 4.9846,-5.10714 9.74432,-10.28186 10.57716,-11.49936 0.83285,-1.2175 2.63663,-5.35387 4.0084,-9.19193 1.37177,-3.83806 3.07192,-7.62634 3.7781,-8.4184 1.25238,-1.40466 9.7142,-8.32628 11.43133,-9.3506 0.57979,-0.34587 1.79797,1.44782 3.72416,5.48359 4.37416,9.16476 15.47409,23.3211 30.33745,38.69098 5.50542,5.69304 6.94038,7.77929 12.54158,18.23387 7.93755,14.81535 12.22646,24.33621 15.90357,35.30396 3.54749,10.58113 4.44287,12.37182 10.97657,21.95222 5.92649,8.69007 6.62615,10.58402 7.20733,19.50995 1.24664,19.14634 -6.72405,40.36624 -17.48969,46.56177 -1.84157,1.05981 -5.27689,3.6917 -7.63403,5.84864 -7.98177,7.30383 -17.99965,13.08257 -30.49743,17.59219 -4.29336,1.5492 -30.79929,8.85378 -35.93114,9.90201 -0.80579,0.16459 -4.85388,-1.47154 -9.28572,-3.75306 z"
         id="path2810"
         transform="scale(0.26458333)" />
      <path
         style="fill:#00ff00;fill-rule:evenodd;stroke:#000000;stroke-width:3.93881"
         d="m 187.99808,213.3062 c -0.41491,-0.77628 -2.90814,-6.23286 -5.5405,-12.12572 -7.43493,-16.64398 -10.46983,-21.99935 -19.32871,-34.10743 l -8.23127,-11.25029 3.8338,-4.82114 c 8.31447,-10.45574 12.42173,-16.61299 23.81093,-35.69524 9.91271,-16.608434 18.29199,-29.48304 19.18869,-29.48304 0.11509,0 1.26445,2.651786 2.55414,5.892857 3.05783,7.684537 6.40366,15.085633 7.02325,15.535713 0.2704,0.19643 1.40927,2.44643 2.53081,5 1.12153,2.55357 4.52746,9.62818 7.56872,15.72135 5.51546,11.05026 8.55004,19.13621 8.55004,22.78246 0,1.05862 0.3721,2.29685 0.82688,2.75163 0.57452,0.57453 0.60206,1.10859 0.0902,1.75 -0.40515,0.50772 -1.96497,4.29813 -3.46628,8.42313 l -2.72965,7.5 -10.41782,10.71429 c -12.25257,12.60124 -17.69407,19.53176 -24.72753,31.49403 -0.75577,1.28538 -0.806,1.28268 -1.53572,-0.0826 z"
         id="path2812"
         transform="scale(0.26458333)" />
      <path
         style="fill:#00ff00;fill-rule:evenodd;stroke:#000000;stroke-width:3.93881"
         d="m 302.03149,199.93048 c -2.11622,-3.9653 -4.78044,-7.52945 -8.14493,-10.89618 -12.02444,-12.03245 -23.67105,-26.16282 -22.78412,-27.64307 0.30484,-0.50877 7.18984,-10.24646 15.30001,-21.63932 20.85308,-29.29365 29.01871,-41.630211 35.3193,-53.360108 l 2.95586,-5.502967 12.81876,21.540695 c 7.05031,11.84739 16.06066,26.10564 20.02299,31.68502 7.85765,11.06439 10.20327,15.65401 10.47532,20.49677 l 0.17759,3.16145 -15.72227,12.77528 c -22.82282,18.5449 -44.90242,35.27529 -46.55387,35.27529 -0.39584,0 -2.13493,-2.65179 -3.86464,-5.89286 z"
         id="path2814"
         transform="scale(0.26458333)" />
    </g>
  </g>
</svg>
