<?xml version="1.0" encoding="UTF-8" standalone="no"?>
<svg
   xmlns:dc="http://purl.org/dc/elements/1.1/"
   xmlns:cc="http://creativecommons.org/ns#"
   xmlns:rdf="http://www.w3.org/1999/02/22-rdf-syntax-ns#"
   xmlns:svg="http://www.w3.org/2000/svg"
   xmlns="http://www.w3.org/2000/svg"
   xmlns:sodipodi="http://sodipodi.sourceforge.net/DTD/sodipodi-0.dtd"
   xmlns:inkscape="http://www.inkscape.org/namespaces/inkscape"
   width="500"
   height="500"
   viewBox="0 0 132.29166 132.29167"
   version="1.1"
   id="svg1969"
   sodipodi:docname="discard.svg"
   inkscape:version="1.0.2 (e86c8708, 2021-01-15)">
  <title
     id="title43">Discard Pile</title>
  <defs
     id="defs1963" />
  <sodipodi:namedview
     id="base"
     pagecolor="#ffffff"
     bordercolor="#666666"
     borderopacity="1.0"
     inkscape:pageopacity="0.0"
     inkscape:pageshadow="2"
     inkscape:zoom="0.24748737"
     inkscape:cx="311.96429"
     inkscape:cy="221.07895"
     inkscape:document-units="mm"
     inkscape:current-layer="layer1"
     inkscape:document-rotation="0"
     showgrid="false"
     units="px"
     inkscape:window-width="1252"
     inkscape:window-height="1174"
     inkscape:window-x="0"
     inkscape:window-y="25"
     inkscape:window-maximized="0" />
  <metadata
     id="metadata1966">
    <rdf:RDF>
      <cc:Work
         rdf:about="">
        <dc:format>image/svg+xml</dc:format>
        <dc:type
           rdf:resource="http://purl.org/dc/dcmitype/StillImage" />
        <dc:title>Discard Pile</dc:title>
        <dc:creator>
          <cc:Agent>
            <dc:title>Thomas Klausner</dc:title>
          </cc:Agent>
        </dc:creator>
        <cc:license
           rdf:resource="http://creativecommons.org/licenses/by/4.0/" />
      </cc:Work>
      <cc:License
         rdf:about="http://creativecommons.org/licenses/by/4.0/">
        <cc:permits
           rdf:resource="http://creativecommons.org/ns#Reproduction" />
        <cc:permits
           rdf:resource="http://creativecommons.org/ns#Distribution" />
        <cc:requires
           rdf:resource="http://creativecommons.org/ns#Notice" />
        <cc:requires
           rdf:resource="http://creativecommons.org/ns#Attribution" />
        <cc:permits
           rdf:resource="http://creativecommons.org/ns#DerivativeWorks" />
      </cc:License>
    </rdf:RDF>
  </metadata>
  <g
     inkscape:label="Layer 1"
     inkscape:groupmode="layer"
     id="layer1">
    <g
       id="g2055"
       transform="matrix(0.99986413,0,0,1.0139382,-13.887399,7.1737055)">
      <path
         id="rect1036-0-1-9-1"
         style="fill:#000000;fill-opacity:1;stroke:#ffffff;stroke-width:2.19024;stroke-miterlimit:4;stroke-dasharray:none"
         d="m 69.10736,54.470902 42.4918,-3.59921 c 9.6569,-0.81807 17.5149,0.259708 17.7929,2.400097 l 4.294,33.021279 c 0.275,2.110898 -7.034,4.77941 -16.557,6.007077 l -41.8859,5.39928 c -10.6015,1.365947 -19.5706,0.650674 -19.9037,-1.632767 l -5.214,-35.749521 c -0.3381,-2.318459 8.2221,-4.93473 18.9819,-5.846235 z" />
      <path
         id="rect1036-0-1-9-9"
         style="fill:#000000;fill-opacity:1;stroke:#ffffff;stroke-width:2.30058;stroke-miterlimit:4;stroke-dasharray:none"
         d="m 24.047877,64.707703 10.4329,-22.076146 c 2.5017,-5.293573 7.4435,-8.37946 11.0668,-6.924574 l 54.432995,21.856751 c 3.387998,1.360579 4.170998,6.551892 1.765998,11.644869 L 91.719577,90.447557 c -2.406,5.094426 -7.0909,8.168436 -10.5176,6.886566 L 26.155677,76.74426 c -3.6642,-1.370495 -4.6103,-6.741228 -2.1078,-12.036557 z" />
      <path
         id="rect1036-0-1-9"
         style="fill:#000000;fill-opacity:1;stroke:#ffffff;stroke-width:2.09765;stroke-miterlimit:4;stroke-dasharray:none"
         d="m 91.20356,22.7226 23.13693,0.1013 c 5.52947,0.0242 8.93096,2.5995 7.62051,5.8037 L 99.725665,83.0184 C 98.16103,86.846 91.943799,89.978 85.793289,90.002 l -25.746748,0.101 c -6.199115,0.025 -9.697474,-3.088 -7.854176,-6.9383 L 78.374841,28.468 c 1.541706,-3.2207 7.260009,-5.7698 12.828719,-5.7454 z" />
    </g>
  </g>
</svg>
